<svg aria-hidden="true" style="width:0;height:0;position:absolute;overflow:hidden" xmlns="http://www.w3.org/2000/svg"><defs><symbol id="icon-logo" viewBox="0 0 80 32"><path d="M22.705 1.935c-.122.046-1.387.564-2.819 1.158-2.789 1.158-3.84 1.813-6.872 4.297-3.246 2.667-5.867 5.455-7.68 8.137-1.265 1.905-2.621 4.632-2.834 5.714l-.091.518 1.051-.99c2.149-2.042 4.389-3.444 6.232-3.916 1.097-.29 3.749-.32 4.465-.076.731.259 1.219 1.143 1.432 2.59.137.99.213 1.189.411 1.112 2.179-.93 4.023-1.28 7.162-1.387 2.956-.091 4.51.061 6.796.655 4.251 1.097 7.619 4.099 9.448 8.427.564 1.356.975 1.768.975 1.006 0-.488.579-1.63 1.6-3.2 2.606-3.977 6.232-6.156 11.291-6.796 2.24-.274 6.141-.107 8.137.366.884.213 1.935.533 2.331.701.411.183.777.32.808.32s.061-.244.061-.533c0-1.844.853-3.154 2.194-3.352.396-.061 1.356-.076 2.133-.046 2.392.137 4.693 1.295 7.558 3.825.716.64 1.31 1.128 1.326 1.112.076-.061-1.173-3.017-1.737-4.16-.305-.594-.838-1.417-1.189-1.829-.335-.396-.975-1.25-1.417-1.874-1.874-2.743-4.678-5.47-7.65-7.482-1.829-1.234-5.135-2.91-7.467-3.779l-1.6-.61-.091.731c-.061.396-.213.975-.366 1.28-.35.747-1.448 1.737-2.408 2.164-1.691.731-5.029 1.295-7.802 1.295h-1.097l-.35-2.133c-.366-2.21-.625-2.697-.838-1.57-.061.381-.305.762-.701 1.143l-.61.579h-2.331c-2.667 0-2.85-.061-3.444-1.28-.213-.442-.396-.655-.533-.61-.32.122-.686 1.219-.884 2.606l-.168 1.265H34.07c-1.585 0-4.876-.411-6.187-.777-2.423-.686-4.053-1.905-4.495-3.368-.122-.442-.229-.914-.229-1.067 0-.29-.061-.305-.457-.168zm9.752 7.695a18.335 18.335 0 0 1 1.63 1.798c.93 1.173 2.423 2.59 2.728 2.59.107 0 .198-.564.274-1.554.091-1.448.076-1.57-.244-1.905-.183-.198-.442-.35-.579-.35-.411 0-.808-.533-.686-.914.107-.32.137-.32 2.331-.229 1.234.061 2.286.137 2.362.183.168.107.122.61-.076.777-.107.076-.564.183-1.006.213-.442.046-.823.107-.869.152-.03.03-.076 1.615-.091 3.52l-.03 3.459h-.411c-.411 0-1.173-.762-2.24-2.24-.259-.366-.823-.96-1.234-1.341-.427-.381-.93-.93-1.097-1.219-.61-.99-.762-.731-.762 1.295 0 2.042.046 2.133 1.234 2.347.533.091 1.036.457.869.64-.076.061-3.063.091-4.587.03-.549-.03-.579-.061-.533-.488.046-.457.076-.472.96-.549l.914-.076-.03-2.042c-.046-2.347-.198-2.971-.808-3.291-.625-.32-.945-.808-.747-1.173.122-.213.335-.274 1.067-.274.869 0 .975.03 1.661.64zm15.634.046c.442.29.914.747 1.189 1.189.396.64.442.823.411 2.011 0 .96-.091 1.509-.335 2.042-.549 1.28-.792 1.417-3.185 1.844-1.341.229-4.267.244-4.907.015-1.067-.35-.564-.93.869-.99.427-.03.853-.091.945-.137.168-.107.259-4.51.107-5.029-.061-.198-.244-.259-.823-.259-.869 0-1.219-.107-1.219-.396 0-.213.427-.488 1.051-.67.213-.061 1.463-.107 2.773-.091 2.362.015 2.377.015 3.124.472zM28.602 10.91c.152.411-.213.945-.747 1.051-.274.061-.823.305-1.234.549-.396.244-.792.442-.869.442-.274 0-.152.244.198.427.183.091.716.32 1.173.488.457.183.99.396 1.189.472.411.168.427.442.046.914-.274.335-.305.335-.945.137-.366-.122-.838-.335-1.036-.488s-.442-.274-.564-.274c-.107 0-.533-.168-.945-.381-.427-.213-.884-.381-1.051-.381-.67 0-1.341-.975-.762-1.128.091-.03.518-.137.945-.229.411-.107 1.478-.564 2.362-1.006 1.707-.884 2.088-.975 2.24-.594zm23.908.199c1.89.914 2.636 1.234 2.941 1.234.335 0 .93.488.93.762 0 .198-.427.396-1.082.518-.29.046-1.158.411-1.905.792-1.722.884-2.408 1.128-2.651.975-.32-.198-.046-.899.427-1.067.655-.229 2.453-1.128 2.469-1.234 0-.046-.29-.213-.64-.366-.366-.152-.93-.396-1.265-.533a11.047 11.047 0 0 0-.869-.35c-.335-.122-.35-.396-.03-.838.305-.442.594-.427 1.676.107z"/><path d="M44.8 10.743c-.229.274-.213 4.236.015 4.678.137.244.259.274.945.183.442-.061.96-.198 1.173-.32.594-.35 1.067-1.143 1.158-1.981.137-1.036-.457-2.225-1.25-2.56-.716-.29-1.798-.305-2.042 0z"/></symbol><symbol id="icon-artage-io-530412_1673440827" viewBox="0 0 45 32"><path fill="#275495" style="fill:var(--color1,#275495)" d="M-1.6 32h48V0h-48z"/><path fill="#fad120" style="fill:var(--color2,#fad120)" d="M-1.6 32h48V16h-48z"/></symbol><symbol id="icon-facebook2" viewBox="0 0 32 32"><path d="M29 0H3C1.35 0 0 1.35 0 3v26c0 1.65 1.35 3 3 3h13V18h-4v-4h4v-2c0-3.306 2.694-6 6-6h4v4h-4c-1.1 0-2 .9-2 2v2h6l-1 4h-5v14h9c1.65 0 3-1.35 3-3V3c0-1.65-1.35-3-3-3z"/></symbol><symbol id="icon-instagram" viewBox="0 0 32 32"><path d="M16 2.881c4.275 0 4.781.019 6.462.094 1.563.069 2.406.331 2.969.55a4.952 4.952 0 0 1 1.837 1.194 5.015 5.015 0 0 1 1.2 1.838c.219.563.481 1.412.55 2.969.075 1.688.094 2.194.094 6.463s-.019 4.781-.094 6.463c-.069 1.563-.331 2.406-.55 2.969a4.94 4.94 0 0 1-1.194 1.837 5.02 5.02 0 0 1-1.837 1.2c-.563.219-1.413.481-2.969.55-1.688.075-2.194.094-6.463.094s-4.781-.019-6.463-.094c-1.563-.069-2.406-.331-2.969-.55a4.952 4.952 0 0 1-1.838-1.194 5.02 5.02 0 0 1-1.2-1.837c-.219-.563-.481-1.413-.55-2.969-.075-1.688-.094-2.194-.094-6.463s.019-4.781.094-6.463c.069-1.563.331-2.406.55-2.969a4.964 4.964 0 0 1 1.194-1.838 5.015 5.015 0 0 1 1.838-1.2c.563-.219 1.412-.481 2.969-.55 1.681-.075 2.188-.094 6.463-.094zM16 0c-4.344 0-4.887.019-6.594.094-1.7.075-2.869.35-3.881.744-1.056.412-1.95.956-2.837 1.85a7.833 7.833 0 0 0-1.85 2.831C.444 6.538.169 7.7.094 9.4.019 11.113 0 11.656 0 16s.019 4.887.094 6.594c.075 1.7.35 2.869.744 3.881.413 1.056.956 1.95 1.85 2.837a7.82 7.82 0 0 0 2.831 1.844c1.019.394 2.181.669 3.881.744 1.706.075 2.25.094 6.594.094s4.888-.019 6.594-.094c1.7-.075 2.869-.35 3.881-.744 1.05-.406 1.944-.956 2.831-1.844s1.438-1.781 1.844-2.831c.394-1.019.669-2.181.744-3.881.075-1.706.094-2.25.094-6.594s-.019-4.887-.094-6.594c-.075-1.7-.35-2.869-.744-3.881a7.506 7.506 0 0 0-1.831-2.844A7.82 7.82 0 0 0 26.482.843C25.463.449 24.301.174 22.601.099c-1.712-.081-2.256-.1-6.6-.1z"/><path d="M16 7.781c-4.537 0-8.219 3.681-8.219 8.219s3.681 8.219 8.219 8.219 8.219-3.681 8.219-8.219A8.221 8.221 0 0 0 16 7.781zm0 13.55a5.331 5.331 0 1 1 0-10.663 5.331 5.331 0 0 1 0 10.663zM26.462 7.456a1.919 1.919 0 1 1-3.838 0 1.919 1.919 0 0 1 3.838 0z"/></symbol><symbol id="icon-twitter" viewBox="0 0 32 32"><path d="M32 7.075a12.941 12.941 0 0 1-3.769 1.031 6.601 6.601 0 0 0 2.887-3.631 13.21 13.21 0 0 1-4.169 1.594A6.565 6.565 0 0 0 22.155 4a6.563 6.563 0 0 0-6.563 6.563c0 .512.056 1.012.169 1.494A18.635 18.635 0 0 1 2.23 5.195a6.56 6.56 0 0 0-.887 3.3 6.557 6.557 0 0 0 2.919 5.463 6.565 6.565 0 0 1-2.975-.819v.081a6.565 6.565 0 0 0 5.269 6.437 6.574 6.574 0 0 1-2.968.112 6.588 6.588 0 0 0 6.131 4.563 13.17 13.17 0 0 1-9.725 2.719 18.568 18.568 0 0 0 10.069 2.95c12.075 0 18.681-10.006 18.681-18.681 0-.287-.006-.569-.019-.85A13.216 13.216 0 0 0 32 7.076z"/></symbol><symbol id="icon-github" viewBox="0 0 32 32"><path d="M16 .395c-8.836 0-16 7.163-16 16 0 7.069 4.585 13.067 10.942 15.182.8.148 1.094-.347 1.094-.77 0-.381-.015-1.642-.022-2.979-4.452.968-5.391-1.888-5.391-1.888-.728-1.849-1.776-2.341-1.776-2.341-1.452-.993.11-.973.11-.973 1.606.113 2.452 1.649 2.452 1.649 1.427 2.446 3.743 1.739 4.656 1.33.143-1.034.558-1.74 1.016-2.14-3.554-.404-7.29-1.777-7.29-7.907 0-1.747.625-3.174 1.649-4.295-.166-.403-.714-2.03.155-4.234 0 0 1.344-.43 4.401 1.64a15.353 15.353 0 0 1 4.005-.539c1.359.006 2.729.184 4.008.539 3.054-2.07 4.395-1.64 4.395-1.64.871 2.204.323 3.831.157 4.234 1.026 1.12 1.647 2.548 1.647 4.295 0 6.145-3.743 7.498-7.306 7.895.574.497 1.085 1.47 1.085 2.963 0 2.141-.019 3.864-.019 4.391 0 .426.288.925 1.099.768C27.421 29.457 32 23.462 32 16.395c0-8.837-7.164-16-16-16z"/></symbol></defs></svg>